<?xml version="1.0" standalone="no"?>
<!DOCTYPE svg PUBLIC "-//W3C//DTD SVG 20010904//EN"
 "http://www.w3.org/TR/2001/REC-SVG-20010904/DTD/svg10.dtd">
<svg version="1.0" xmlns="http://www.w3.org/2000/svg"
 width="120.000000pt" height="130.000000pt" viewBox="0 0 120.000000 130.000000"
 preserveAspectRatio="xMidYMid meet">
<metadata>
Created by potrace 1.16, written by Peter Selinger 2001-2019
</metadata>
<g transform="translate(0.000000,130.000000) scale(0.100000,-0.100000)"
fill="#000000" stroke="none">
<path d="M556 1128 c-30 -24 -66 -51 -79 -60 -14 -9 -34 -44 -47 -79 -17 -44
-37 -74 -72 -107 -45 -41 -48 -48 -48 -93 0 -37 5 -53 22 -69 12 -11 25 -20
30 -20 18 0 6 -47 -22 -84 -21 -28 -30 -51 -30 -78 0 -32 -3 -38 -21 -38 -11
0 -32 9 -46 20 -29 23 -66 26 -81 7 -15 -18 -52 -136 -52 -167 0 -60 49 -66
86 -10 28 42 29 42 80 3 54 -41 146 -48 269 -23 23 5 37 -2 74 -36 44 -39 59
-82 40 -112 -16 -25 -6 -50 23 -56 13 -2 57 -11 98 -20 98 -21 149 -21 157 1
9 22 -50 71 -97 79 -51 10 -53 12 -30 52 30 50 38 134 16 166 -9 14 -16 27
-16 29 0 2 18 17 40 32 22 15 49 43 61 61 11 19 28 34 38 34 9 0 34 9 54 19
21 10 46 17 57 14 10 -3 35 0 54 7 54 18 59 66 10 114 -23 23 -62 20 -96 -9
-48 -41 -54 -34 -48 52 3 43 11 87 17 98 13 23 26 55 27 70 1 6 11 20 24 33
12 12 22 30 22 40 0 9 -30 48 -65 87 -72 76 -78 78 -190 60 -41 -6 -53 -4 -64
9 -10 12 -31 16 -76 16 -58 0 -67 -3 -119 -42z"/>
</g>
</svg>
